<?xml version="1.0" encoding="UTF-8"?>
<svg id="Layer_1" data-name="Layer 1" xmlns="http://www.w3.org/2000/svg" viewBox="0 0 115.28 30">
  <defs>
    <style>
      .cls-1 {
        fill: #d98f5f;
      }

      .cls-2 {
        fill: #313030;
      }
    </style>
  </defs>
  <g>
    <path class="cls-2" d="m25.35.42l-7.11,7.11v4.36H7.14V.42H0v29.29h7.14v-12.06h11.1v12.06h7.13V.42h-.02Z"/>
    <path class="cls-2" d="m37.51.42v17.52c0,1.75.43,3.1,1.29,4.05.86.95,2.13,1.42,3.8,1.42s2.95-.47,3.84-1.42c.89-.95,1.34-2.29,1.34-4.05V.42h7.13v17.48c0,2.62-.56,4.83-1.67,6.63-1.11,1.81-2.61,3.17-4.49,4.09-1.88.92-3.97,1.38-6.28,1.38s-4.37-.45-6.2-1.36c-1.82-.9-3.26-2.27-4.32-4.09-1.06-1.82-1.59-4.04-1.59-6.66V.42h7.13Z"/>
    <path class="cls-2" d="m77.86,6.13V.42h-5.19l-12.75,12.75v16.54h17.94v-5.72h-10.81v-6.42h9.55v-5.51h-9.55v-5.92h10.81Z"/>
    <path class="cls-2" d="m87.33,28.96c-1.7-.69-3.05-1.72-4.07-3.09-1.02-1.36-1.55-3-1.61-4.92h7.59c.11,1.08.49,1.91,1.13,2.48.64.57,1.47.86,2.5.86s1.89-.24,2.5-.73c.61-.49.92-1.16.92-2.02,0-.72-.24-1.32-.73-1.79-.49-.47-1.08-.86-1.79-1.17-.71-.31-1.72-.65-3.02-1.04-1.89-.58-3.44-1.17-4.63-1.75-1.2-.58-2.23-1.45-3.09-2.59-.86-1.14-1.29-2.63-1.29-4.46,0-2.73.99-4.86,2.96-6.4,1.97-1.54,4.55-2.32,7.72-2.32s5.83.77,7.8,2.32c1.97,1.54,3.03,3.69,3.17,6.45h-7.72c-.06-.95-.4-1.69-1.04-2.23-.64-.54-1.46-.81-2.46-.81-.86,0-1.56.23-2.09.69-.53.46-.79,1.12-.79,1.98,0,.95.44,1.68,1.34,2.21.89.53,2.28,1.1,4.17,1.71,1.89.64,3.43,1.25,4.61,1.84,1.18.58,2.2,1.43,3.07,2.55.86,1.11,1.29,2.55,1.29,4.3s-.42,3.19-1.27,4.55c-.85,1.36-2.08,2.45-3.69,3.25-1.61.81-3.52,1.21-5.72,1.21s-4.06-.35-5.76-1.04Z"/>
    <path class="cls-2" d="m115.25.42l-7.1,7.11v22.18h7.13V.42h-.03Z"/>
  </g>
  <polygon class="cls-1" points="24.29 .68 18.53 6.43 18.53 .68 24.29 .68"/>
  <polygon class="cls-1" points="114.27 .72 108.53 6.46 108.53 .72 114.27 .72"/>
  <polygon class="cls-1" points="71.06 .76 60.21 11.61 60.21 .76 71.06 .76"/>
</svg>