<svg width="120" height="30" viewBox="0 0 120 30" fill="none" xmlns="http://www.w3.org/2000/svg">
<path d="M26.41 0.540039V29.59H18.98V17.63H7.43V29.59H0V0.540039H7.43V11.92H18.98V0.540039H26.41Z" fill="white"/>
<path d="M39.04 0.540039V17.92C39.04 19.66 39.49 21 40.39 21.93C41.29 22.87 42.61 23.34 44.34 23.34C46.08 23.34 47.41 22.87 48.34 21.93C49.27 20.99 49.73 19.65 49.73 17.92V0.540039H57.16V17.88C57.16 20.47 56.58 22.67 55.42 24.46C54.26 26.25 52.71 27.61 50.75 28.52C48.8 29.43 46.62 29.89 44.21 29.89C41.81 29.89 39.66 29.44 37.76 28.54C35.86 27.64 34.36 26.29 33.26 24.48C32.16 22.67 31.61 20.47 31.61 17.88V0.540039H39.04Z" fill="white"/>
<path d="M69.79 6.21004V12.09H79.74V17.55H69.79V23.92H81.04V29.59H62.37V0.540039H81.05V6.21004H69.79Z" fill="white"/>
<path d="M90.9 28.84C89.13 28.15 87.72 27.13 86.67 25.78C85.61 24.43 85.06 22.8 85 20.9H92.9C93.02 21.98 93.41 22.8 94.07 23.36C94.74 23.93 95.6 24.21 96.68 24.21C97.78 24.21 98.65 23.97 99.29 23.49C99.93 23.01 100.25 22.34 100.25 21.48C100.25 20.76 100 20.17 99.49 19.7C98.98 19.23 98.36 18.85 97.62 18.54C96.88 18.24 95.83 17.89 94.47 17.51C92.5 16.93 90.89 16.35 89.65 15.77C88.4 15.19 87.33 14.34 86.44 13.2C85.54 12.07 85.09 10.59 85.09 8.77C85.09 6.07 86.12 3.95 88.17 2.42C90.23 0.889995 92.9 0.119995 96.2 0.119995C99.56 0.119995 102.27 0.889995 104.32 2.42C106.38 3.95 107.48 6.08 107.62 8.81H99.58C99.52 7.87 99.16 7.13 98.49 6.6C97.82 6.06 96.97 5.79 95.93 5.79C95.03 5.79 94.31 6.02 93.76 6.47C93.21 6.93 92.93 7.57999 92.93 8.43999C92.93 9.37999 93.39 10.11 94.32 10.63C95.25 11.15 96.69 11.72 98.66 12.33C100.63 12.96 102.23 13.57 103.46 14.15C104.69 14.73 105.75 15.57 106.65 16.67C107.55 17.77 108 19.19 108 20.93C108 22.59 107.56 24.09 106.68 25.44C105.8 26.79 104.52 27.87 102.84 28.67C101.16 29.47 99.18 29.87 96.89 29.87C94.66 29.88 92.67 29.53 90.9 28.84Z" fill="white"/>
<path d="M120 0.540039V29.59H112.57V0.540039H120Z" fill="white"/>
</svg>
