<?xml version="1.0" encoding="utf-8"?>
<!-- Generator: Adobe Illustrator 27.3.1, SVG Export Plug-In . SVG Version: 6.00 Build 0)  -->
<svg version="1.1" id="Layer_1" xmlns="http://www.w3.org/2000/svg" xmlns:xlink="http://www.w3.org/1999/xlink" x="0px" y="0px"
	 viewBox="0 0 120 30" style="enable-background:new 0 0 120 30;" xml:space="preserve">
<style type="text/css">
	.st0{fill:#333333;}
</style>
<g>
	<path class="st0" d="M26.41,0.54v29.05h-7.43V17.63H7.43v11.96H0V0.54h7.43v11.38h11.55V0.54H26.41z"/>
	<path class="st0" d="M39.04,0.54v17.38c0,1.74,0.45,3.08,1.35,4.01c0.9,0.94,2.22,1.41,3.95,1.41c1.74,0,3.07-0.47,4-1.41
		c0.93-0.94,1.39-2.28,1.39-4.01V0.54h7.43v17.34c0,2.59-0.58,4.79-1.74,6.58c-1.16,1.79-2.71,3.15-4.67,4.06
		c-1.95,0.91-4.13,1.37-6.54,1.37c-2.4,0-4.55-0.45-6.45-1.35c-1.9-0.9-3.4-2.25-4.5-4.06c-1.1-1.81-1.65-4.01-1.65-6.6V0.54H39.04z
		"/>
	<path class="st0" d="M69.79,6.21v5.88h9.95v5.46h-9.95v6.37h11.25v5.67H62.37V0.54h18.68v5.67H69.79z"/>
	<path class="st0" d="M90.9,28.84c-1.77-0.69-3.18-1.71-4.23-3.06c-1.06-1.35-1.61-2.98-1.67-4.88h7.9c0.12,1.08,0.51,1.9,1.17,2.46
		c0.67,0.57,1.53,0.85,2.61,0.85c1.1,0,1.97-0.24,2.61-0.72c0.64-0.48,0.96-1.15,0.96-2.01c0-0.72-0.25-1.31-0.76-1.78
		c-0.51-0.47-1.13-0.85-1.87-1.16c-0.74-0.3-1.79-0.65-3.15-1.03c-1.97-0.58-3.58-1.16-4.82-1.74c-1.25-0.58-2.32-1.43-3.21-2.57
		c-0.9-1.13-1.35-2.61-1.35-4.43c0-2.7,1.03-4.82,3.08-6.35c2.06-1.53,4.73-2.3,8.03-2.3c3.36,0,6.07,0.77,8.12,2.3
		c2.06,1.53,3.16,3.66,3.3,6.39h-8.04c-0.06-0.94-0.42-1.68-1.09-2.21c-0.67-0.54-1.52-0.81-2.56-0.81c-0.9,0-1.62,0.23-2.17,0.68
		c-0.55,0.46-0.83,1.11-0.83,1.97c0,0.94,0.46,1.67,1.39,2.19c0.93,0.52,2.37,1.09,4.34,1.7c1.97,0.63,3.57,1.24,4.8,1.82
		c1.23,0.58,2.29,1.42,3.19,2.52c0.9,1.1,1.35,2.52,1.35,4.26c0,1.66-0.44,3.16-1.32,4.51c-0.88,1.35-2.16,2.43-3.84,3.23
		c-1.68,0.8-3.66,1.2-5.95,1.2C94.66,29.88,92.67,29.53,90.9,28.84z"/>
	<path class="st0" d="M120,0.54v29.05h-7.43V0.54H120z"/>
</g>
</svg>
